<?xml version="1.0" standalone="no"?>
<!DOCTYPE svg PUBLIC "-//W3C//DTD SVG 20010904//EN"
 "http://www.w3.org/TR/2001/REC-SVG-20010904/DTD/svg10.dtd">
<svg version="1.0" xmlns="http://www.w3.org/2000/svg"
 width="100%" height="100%" viewBox="0 0 300.000000 129.000000"
 preserveAspectRatio="xMidYMid meet">
<metadata>
Created by potrace 1.10, written by Peter Selinger 2001-2011
</metadata>
<g transform="translate(0.000000,129.000000) scale(0.100000,-0.100000)"
fill="#000000" stroke="none">
<path d="M1020 789 c-14 -12 -34 -27 -44 -35 -11 -7 -17 -16 -14 -19 3 -4 26
8 52 26 l46 33 40 -33 c22 -17 46 -31 52 -30 46 6 48 2 48 -81 l0 -80 -145 0
-145 0 0 80 c0 73 2 80 20 80 12 0 20 7 20 16 0 11 -5 14 -16 10 -9 -3 -22 -6
-30 -6 -11 0 -14 -21 -14 -105 l0 -105 165 0 166 0 -3 106 -3 107 -27 3 c-16
1 -28 -2 -28 -8 0 -5 -22 6 -49 26 -27 20 -53 36 -57 36 -5 -1 -20 -10 -34
-21z"/>
<path d="M1020 750 l-35 -29 23 -17 c15 -10 22 -23 19 -35 -3 -10 2 -20 11
-24 8 -3 16 -4 16 -3 1 2 7 16 14 31 7 16 22 31 33 34 25 7 21 20 -17 49 l-29
23 -35 -29z"/>
<path d="M1300 703 c0 -66 2 -73 20 -73 15 0 20 7 20 25 0 20 5 25 25 25 27 0
28 1 19 24 -3 9 -15 16 -25 16 -10 0 -19 6 -19 13 0 9 10 12 30 9 29 -4 30 -6
30 -58 l0 -54 50 0 c43 0 50 3 50 20 0 15 -7 20 -29 20 -17 0 -33 6 -38 13 -5
8 -10 2 -14 -18 -5 -21 -7 -10 -8 37 -1 74 -8 81 -75 76 l-36 -2 0 -73z m84
59 c3 -5 -8 -6 -25 -4 -25 4 -29 1 -29 -21 0 -17 7 -27 23 -32 l22 -8 -22 -4
c-16 -3 -23 -11 -23 -29 0 -13 -3 -24 -7 -24 -8 0 -6 93 2 118 5 13 51 17 59
4z"/>
<path d="M1420 739 c0 -40 1 -41 30 -37 23 4 30 1 26 -9 -3 -8 -1 -11 4 -8 6
3 10 13 10 22 0 11 -8 14 -29 11 -22 -3 -27 -1 -24 12 3 12 13 15 34 12 24 -4
29 -1 29 17 0 18 -6 21 -40 21 l-40 0 0 -41z"/>
<path d="M1553 770 c-47 -19 -58 -87 -18 -118 19 -15 40 -20 80 -20 51 1 55 2
55 24 0 19 5 24 25 24 20 0 25 -5 25 -25 0 -14 5 -25 10 -25 6 0 10 18 10 39
0 41 -11 51 -54 51 -19 0 -22 4 -18 30 4 29 -13 42 -31 23 -10 -9 -56 -10 -51
-1 6 10 -5 9 -33 -2z m99 -35 l-4 -35 43 -2 44 -1 -44 -4 c-40 -4 -43 -6 -38
-29 2 -13 0 -24 -4 -24 -10 0 -12 113 -2 123 9 10 9 10 5 -28z m-54 14 c26 14
32 5 32 -45 0 -45 -11 -59 -47 -59 -28 -1 -14 15 16 18 11 1 21 5 21 9 0 4
-13 5 -30 2 -34 -7 -51 16 -32 46 8 13 7 21 -1 31 -10 11 -9 11 5 0 12 -9 22
-10 36 -2z m-58 -49 c0 -10 5 -22 10 -25 6 -4 7 -11 4 -17 -10 -16 -29 10 -29
42 0 15 3 26 8 23 4 -2 7 -13 7 -23z"/>
<path d="M1720 749 c0 -34 19 -40 22 -6 1 12 5 -9 8 -48 l7 -70 -1 74 c-1 63
-4 75 -18 77 -14 2 -18 -5 -18 -27z"/>
<path d="M1770 760 c0 -11 7 -20 15 -20 12 0 15 -13 15 -55 0 -48 2 -55 20
-55 18 0 20 6 18 53 -1 43 -2 45 -5 15 -6 -52 -23 -48 -23 5 0 43 0 44 33 39
22 -3 29 -1 22 6 -5 6 -26 13 -45 15 -29 3 -28 4 8 3 23 -1 42 2 42 6 0 5 -22
8 -50 8 -43 0 -50 -3 -50 -20z"/>
<path d="M1899 775 c-3 -2 -3 -21 -1 -41 4 -33 6 -36 34 -32 21 4 27 1 24 -9
-3 -7 -1 -13 4 -13 6 0 10 10 10 21 0 18 -5 21 -29 17 -22 -3 -27 -1 -24 12 3
12 13 15 34 12 24 -4 29 -1 29 17 0 18 -6 21 -38 21 -21 0 -41 -2 -43 -5z"/>
<path d="M2000 703 c0 -66 2 -73 20 -73 15 0 20 7 20 28 l1 27 15 -27 c8 -16
23 -28 34 -28 23 0 24 4 9 31 -8 16 -13 18 -25 8 -12 -9 -13 -9 -9 2 4 10 -2
15 -15 16 -15 1 -20 -4 -20 -23 0 -13 -3 -24 -7 -24 -5 0 -6 29 -5 65 3 59 6
65 25 64 17 -1 18 -2 5 -6 -24 -6 -23 -19 2 -26 11 -3 18 -2 15 3 -3 4 1 10 8
13 8 3 12 -5 12 -23 0 -17 -4 -25 -10 -21 -16 13 -45 21 -45 13 0 -4 12 -13
28 -20 23 -11 29 -10 39 5 17 23 16 30 -7 53 -14 14 -31 20 -55 18 l-35 -2 0
-73z"/>
<path d="M977 694 c-14 -15 -6 -34 14 -34 14 0 19 5 17 17 -3 18 -20 27 -31
17z"/>
<path d="M1090 680 c-11 -11 -20 -24 -20 -30 0 -15 38 -50 53 -50 18 0 47 32
47 52 0 17 -31 48 -48 48 -7 0 -21 -9 -32 -20z m14 -27 c-5 -17 -5 -17 6 0 12
19 35 23 45 6 9 -13 3 -19 -26 -24 -29 -5 -54 8 -45 24 11 18 26 13 20 -6z"/>
<path d="M1881 668 l-1 -38 50 0 c43 0 50 3 50 20 0 16 -7 20 -34 20 -19 0
-37 6 -39 13 -3 6 -6 -1 -8 -18 l-2 -30 -7 35 -7 35 -2 -37z"/>
<path d="M960 635 c-18 -22 -9 -27 41 -23 41 3 42 4 25 21 -22 21 -49 22 -66
2z"/>
<path d="M1310 586 c-20 -25 -8 -61 20 -63 14 -1 18 0 8 3 -19 6 -26 54 -8 54
6 0 10 5 10 10 0 15 -16 12 -30 -4z"/>
<path d="M1360 580 c-16 -30 -3 -62 23 -58 18 2 22 10 22 38 0 41 -27 53 -45
20z m38 -22 c-5 -32 -28 -35 -28 -4 0 17 5 26 16 26 10 0 14 -7 12 -22z"/>
<path d="M1420 559 c0 -36 2 -40 23 -37 39 5 31 78 -9 78 -10 0 -14 -13 -14
-41z"/>
<path d="M1480 560 c0 -22 5 -40 10 -40 6 0 10 18 10 40 0 22 -4 40 -10 40 -5
0 -10 -18 -10 -40z"/>
<path d="M1536 568 c-3 -17 -2 -36 4 -42 7 -7 10 4 10 32 0 50 -5 54 -14 10z"/>
<path d="M1570 580 c-13 -24 3 -60 25 -60 8 0 15 9 15 20 0 11 -4 20 -10 20
-5 0 -6 -7 -3 -17 4 -11 3 -14 -5 -9 -17 10 -15 46 3 46 8 0 15 5 15 10 0 18
-29 11 -40 -10z"/>
<path d="M1651 558 c0 -24 3 -36 6 -28 4 8 13 20 20 25 17 12 7 45 -13 45 -10
0 -14 -12 -13 -42z"/>
<path d="M1704 586 c-11 -28 0 -61 21 -61 16 0 20 7 20 35 0 25 -5 36 -18 38
-9 2 -20 -3 -23 -12z m34 -28 c-2 -13 -7 -23 -13 -23 -5 0 -11 10 -13 23 -2
15 2 22 13 22 11 0 15 -7 13 -22z"/>
<path d="M1768 560 c-3 -38 5 -54 15 -27 4 10 6 10 6 0 1 -7 4 -13 9 -13 6 0
7 31 3 73 -1 4 -7 7 -15 7 -9 0 -15 -14 -18 -40z"/>
<path d="M1827 563 c3 -21 7 -40 9 -42 7 -8 11 3 17 42 5 32 3 37 -13 37 -16
0 -18 -5 -13 -37z"/>
<path d="M1870 560 c0 -23 5 -40 11 -40 6 0 9 6 6 14 -3 8 -1 17 6 20 9 5 9 8
-1 12 -10 5 -9 9 5 20 17 13 17 13 -4 14 -20 0 -23 -5 -23 -40z"/>
<path d="M1920 581 c-14 -27 4 -64 28 -59 12 2 17 13 17 38 0 41 -27 53 -45
21z m40 -21 c0 -10 -5 -22 -10 -25 -13 -8 -24 20 -16 41 8 20 26 9 26 -16z"/>
<path d="M1980 560 c0 -35 3 -40 23 -39 12 0 16 3 10 6 -7 2 -13 20 -13 39 0
19 -4 34 -10 34 -5 0 -10 -18 -10 -40z"/>
<path d="M2060 580 c-16 -30 -3 -62 23 -58 18 2 22 10 22 38 0 41 -27 53 -45
20z m35 -25 c0 -10 -6 -20 -12 -22 -8 -3 -13 5 -13 22 0 17 5 25 13 23 6 -3
12 -13 12 -23z"/>
<path d="M1013 513 c-37 -26 -27 -33 47 -33 44 0 70 4 70 11 0 6 -9 13 -20 16
-11 3 -20 9 -20 14 0 15 -53 9 -77 -8z"/>
</g>
</svg>
